<svg xmlns="http://www.w3.org/2000/svg" xmlns:xlink="http://www.w3.org/1999/xlink" xml:space="preserve" version="1.1" style="shape-rendering:geometricPrecision;text-rendering:geometricPrecision;image-rendering:optimizeQuality;" viewBox="0 0 842.42 761.975" x="0px" y="0px" fill-rule="evenodd" clip-rule="evenodd"><defs><style type="text/css">
   
    .fil0 {fill:black;fill-rule:nonzero}
   
  </style></defs><g><path class="fil0" d="M520.64 431.04l0 -57.86 60.62 0 0 -57.88 73.12 0 0 281.78 188.04 0 0 12.5c-280.85,0 -561.62,0 -842.42,0l0 -12.5 188.85 0 0 -170.73 42.53 0c0,-86.08 -0.05,-172.16 -0.08,-258.24l-57.81 0c0,-21.79 0,-43.6 0,-65.39l3.36 0 84.87 -100.34c1.75,-2.09 4.81,-3.1 7.53,-1.75l238.87 102.09c27.72,0 55.43,0 83.14,0l0 65.39c-27.28,0 -54.57,0 -81.85,0l0 49.63c10.57,3.26 16.86,14.13 14.49,24.86l53.61 30.26 27.49 0 0 32.65 -203.68 0 0 -32.65 26.81 0 54.27 -30.35c-2.31,-10.69 3.98,-21.52 14.51,-24.77l0 -49.63c-65.05,0 -130.09,0 -195.13,0 0,86.08 0,172.16 0,258.24l50.03 0 0 170.73 108.19 0 0 -166.04 60.63 0zm-244.05 29.27l0 136.77 62.73 0 0 -158.23 -137.97 0 0 158.23 16.47 0 0 -136.77 58.77 0zm-12.5 12.5l-33.77 0 0 124.27 33.77 0 0 -124.27zm253.71 -219.38c-3.81,3.62 -8.97,5.84 -14.63,5.84 -5.69,0 -10.87,-2.25 -14.68,-5.89l-34.84 19.48 98.57 0 -34.42 -19.43zm-103.97 31.93l0 7.65 178.68 0 0 -7.65 -178.68 0zm89.34 -56.06c-4.81,0 -8.74,3.93 -8.74,8.74 0,4.82 3.91,8.74 8.74,8.74 4.83,0 8.74,-3.91 8.74,-8.74 0,-4.82 -3.92,-8.74 -8.74,-8.74zm-309.97 -126.58l38.19 0 1.38 0 19.96 -70.39 -59.53 70.39zm82.94 -85.59l24.12 85.59c58.41,0 116.81,0 175.22,0l-199.34 -85.59zm-44.85 106.05l-35.49 32.44 35.5 0 -0.01 -32.44zm-45.3 24.55l35.57 -32.51 -35.57 0 0 32.51zm392.79 -24.65l-35.6 32.54 35.6 0 0 -32.54zm-45.4 24.65l35.56 -32.51 -35.56 0 0 32.51zm-48.06 -32.51l35.56 32.51 0 -32.51 -35.56 0zm25.75 40.4l-35.59 -32.54 0 32.54 35.59 0zm-48.09 -32.54l-35.59 32.54 35.59 0 0 -32.54zm-45.4 24.65l35.57 -32.51 -35.57 0 0 32.51zm-48.06 -32.51l35.56 32.51 0 -32.51 -35.56 0zm25.76 40.4l-35.59 -32.54 0 32.54 35.59 0zm-48.09 -32.54l-35.6 32.54 35.6 0 0 -32.54zm-45.4 24.65l35.56 -32.51 -35.56 0 0 32.51zm-48.06 -32.51l35.56 32.51 0 -32.51 -35.56 0zm25.76 40.4l-35.6 -32.54 0 32.54 35.6 0zm-33.76 -52.9l41.57 0 -20.71 -73.52 -20.86 73.52zm-1.84 97.93l35.6 -32.54 -35.6 0 0 32.54zm45.4 -24.65l-35.56 32.51 35.56 0 0 -32.51zm-35.56 45.01l35.56 32.52 0 -32.52 -35.56 0zm25.76 40.4l-35.6 -32.54 0 32.54 35.6 0zm-35.6 45.04l35.6 -32.54 -35.6 0 0 32.54zm45.4 -24.65l-35.56 32.51 35.56 0 0 -32.51zm-35.56 45.01l35.56 32.51 0 -32.51 -35.56 0zm25.76 40.4l-35.6 -32.54 0 32.54 35.6 0zm-35.6 45.03l35.6 -32.53 -35.6 0 0 32.53zm45.4 -24.65l-35.56 32.52 35.56 0 0 -32.52zm193.85 67.4l29.27 0 0 29.26 -29.27 0 0 -29.26zm59.42 0l29.26 0 0 29.26 -29.26 0 0 -29.26zm59.42 0l29.26 0 0 29.26 -29.26 0 0 -29.26zm-59.42 -58.21l29.26 0 0 29.26 -29.26 0 0 -29.26zm59.42 0l29.26 0 0 29.26 -29.26 0 0 -29.26zm0 -50.78l29.26 0 0 29.26 -29.26 0 0 -29.26zm-38.54 181.92l0 67.75 32.11 0 0 -67.75 -32.11 0zm-12.5 67.75l0 -67.75 -32.1 0 0 67.75 32.1 0zm57.11 -80.25l0 81.66 33.83 0 0 -269.28 -48.13 0 0 57.87 -60.62 0 0 57.87 -60.62 0 0 153.54 33.83 0 0 -81.66 101.71 0z"/></g><text x="0" y="624.58" fill="#000000" font-size="5px" font-weight="bold" font-family="'Helvetica Neue', Helvetica, Arial-Unicode, Arial, Sans-serif">Created by franky</text><text x="0" y="629.58" fill="#000000" font-size="5px" font-weight="bold" font-family="'Helvetica Neue', Helvetica, Arial-Unicode, Arial, Sans-serif">from the Noun Project</text></svg>